<?xml version="1.0" encoding="utf-8"?>
<!-- Svg Vector Icons : http://www.onlinewebfonts.com/icon -->
<!DOCTYPE svg PUBLIC "-//W3C//DTD SVG 1.1//EN" "http://www.w3.org/Graphics/SVG/1.1/DTD/svg11.dtd">
<svg fill="#ffffff" width="30px" height="30px" version="1.1" xmlns="http://www.w3.org/2000/svg" xmlns:xlink="http://www.w3.org/1999/xlink" x="0px" y="0px" viewBox="0 0 1000 1000" enable-background="new 0 0 1000 1000" xml:space="preserve">
<metadata> Svg Vector Icons : http://www.onlinewebfonts.com/icon </metadata>
<g><path d="M723.5,985.2c-62.6,0-143.4-41.7-200.2-76.7c-76-46.9-158-111.7-230.7-182.5l-0.3-0.3l-23.1-23.1C198.4,629.9,133.6,548,86.7,471.9C51.7,415.2,10,334.3,10,271.7c0-67,47.9-138.1,68.5-165.6c16.1-21.4,72.2-91.4,119.9-91.4c19.6,0,40.7,12.8,68.4,41.6c24.5,25.4,48.1,57,63.5,79.1c20.7,29.6,39.9,60.6,53.9,87.2c22.8,43.2,25.4,61.7,25.4,71.9c0,20.5-10.7,38.3-31.9,52.9c-13.9,9.6-30.6,16.8-46.8,23.8c-10.9,4.7-28.3,12.2-34.9,17.5c2.3,9.8,12.4,33.5,39.8,73.7c25.5,37.4,58.5,78,88.2,108.6c30.6,29.8,71.1,62.8,108.6,88.2c40.2,27.4,63.8,37.5,73.7,39.8c5.3-6.6,12.8-24,17.5-34.9c7-16.2,14.2-32.9,23.8-46.8c14.6-21.1,32.4-31.9,52.9-31.9c10.2,0,28.7,2.6,71.9,25.4c26.7,14.1,57.7,33.2,87.2,54c22,15.4,53.6,39,79.1,63.5c28.8,27.7,41.6,48.8,41.6,68.4c0,47.7-69.9,103.9-91.4,119.9C861.7,937.3,790.5,985.2,723.5,985.2L723.5,985.2L723.5,985.2z M332.7,685.1c69.8,68,148.1,130,220.6,174.7c70.3,43.3,132.3,68.2,170.2,68.2c33.7,0,81.7-20.6,128.5-55c20.5-15.1,39.2-31.9,52.5-47.4c12.6-14.5,17.1-24,18.3-27.8c-4.9-10.4-33.7-43-100.9-89.4c-26.4-18.2-53.7-34.9-76.8-47.1c-29.1-15.3-41.2-17.9-44-18.4c-1.1,0.7-4.2,3.4-9.1,11.5c-5.4,9-10.6,21-15.6,32.6c-6.2,14.3-12.5,29-20.4,40.9c-12.7,19.3-28.3,29.2-46.4,29.2c-0.3,0-0.7,0-1,0c-8.8-0.2-35.6-0.8-108.3-50.3c-40.1-27.3-83.7-62.8-116.6-94.8l-0.5-0.5c-32-32.9-67.5-76.4-94.8-116.6c-49.5-72.7-50.1-99.5-50.3-108.3c-0.4-18.4,9.3-34.3,28.9-47.2c11.9-7.9,26.8-14.3,41.2-20.6c11.6-5,23.5-10.2,32.6-15.6c8.1-4.8,10.7-8,11.5-9.1c-0.4-2.8-3.1-14.9-18.4-44c-12.2-23.1-28.9-50.4-47.1-76.8c-46.4-67.3-79-96.1-89.4-100.9c-3.8,1.2-13.3,5.8-27.8,18.3c-15.4,13.4-32.3,32-47.4,52.5c-34.5,46.8-55,94.8-55,128.5c0,37.8,24.9,99.8,68.2,170.2c44.7,72.5,106.7,150.9,174.7,220.6L332.7,685.1L332.7,685.1L332.7,685.1z M673.8,479.5c-10,0-18.9-7.2-20.7-17.4c-5.1-29.1-22-54.5-47.5-71.3c-25.9-17.1-57.5-23.4-89-17.8c-11.4,2-22.3-5.6-24.3-17c-2-11.4,5.6-22.3,17-24.3c42.2-7.4,84.6,1.1,119.5,24.2c35.2,23.3,58.6,58.4,65.7,99.1c2,11.4-5.6,22.3-17,24.3C676.2,479.3,675,479.5,673.8,479.5L673.8,479.5z M800.2,425.2c-10,0-18.9-7.2-20.7-17.4c-10-56.6-42.7-105.7-92-138.2c-49.7-32.8-110.4-45-171-34.4c-11.4,2-22.3-5.6-24.3-17c-2-11.4,5.6-22.3,17-24.3c71.1-12.5,142.6,1.9,201.4,40.7c59.1,39,98.3,98,110.2,166c2,11.4-5.6,22.3-17,24.3C802.6,425.1,801.4,425.2,800.2,425.2L800.2,425.2z M969,409.6c-10,0-18.9-7.2-20.7-17.4c-17-96.5-72.7-180.3-156.9-235.8C706.9,100.6,603.8,79.9,501,98c-11.4,2-22.3-5.6-24.3-17c-2-11.4,5.6-22.3,17-24.3c113.3-20,227.3,3,320.8,64.7c93.9,62,156.1,155.6,175.1,263.6c2,11.4-5.6,22.3-17,24.3C971.4,409.5,970.2,409.6,969,409.6L969,409.6z"/></g>
</svg>