<?xml version="1.0" encoding="utf-8"?>
<!-- Svg Vector Icons : http://www.onlinewebfonts.com/icon -->
<!DOCTYPE svg PUBLIC "-//W3C//DTD SVG 1.1//EN" "http://www.w3.org/Graphics/SVG/1.1/DTD/svg11.dtd">
<svg fill="#000000" width="30px" height="30px" version="1.1" xmlns="http://www.w3.org/2000/svg" xmlns:xlink="http://www.w3.org/1999/xlink" x="0px" y="0px" viewBox="0 0 1000 1000" enable-background="new 0 0 1000 1000" xml:space="preserve">
<metadata> Svg Vector Icons : http://www.onlinewebfonts.com/icon </metadata>
<g><g><g><path d="M500,839.2c-117.1,0-220.3-59.4-281.3-149.6h-87.5c68.9,133.6,208.2,225,368.8,225c216.3,0,393.9-165.6,412.9-376.9H990L876.9,386.9L763.8,537.7h73.3C818.4,707.3,674.6,839.2,500,839.2z"/><path d="M500,85.4c-203.2,0-372.3,146.2-407.8,339.2H10l113.1,150.8l113.1-150.8h-67C203.4,273.5,338.6,160.8,500,160.8c102,0,193.5,45,255.7,116.3l14.6-3.7h77C773.2,160.2,645.3,85.4,500,85.4z"/></g></g><g></g><g></g><g></g><g></g><g></g><g></g><g></g><g></g><g></g><g></g><g></g><g></g><g></g><g></g><g></g></g>
</svg>