<svg  fill="#333333" width="30px" height="30px"  xmlns="http://www.w3.org/2000/svg" viewBox="0 0 511.63 328.9"><path d="M505.92,144.75q-40-65.39-107.5-105.06T255.81,0Q180.72,0,113.2,39.69T5.71,144.75Q0,154.74,0,164.45t5.71,19.7q40,65.39,107.49,105.07T255.81,328.9q75.09,0,142.61-39.54t107.5-105.21q5.7-10,5.71-19.7T505.92,144.75ZM194.57,66.66q25.55-25.54,61.24-25.55a13.66,13.66,0,0,1,13.71,13.71,13.66,13.66,0,0,1-13.7,13.7,57.19,57.19,0,0,0-42,17.42,57.17,57.17,0,0,0-17.42,42,13.71,13.71,0,1,1-27.42,0Q169,92.23,194.57,66.66Zm185.3,191a239.22,239.22,0,0,1-248.11,0Q74.52,223,36.55,164.45,79.95,97.07,145.32,63.67a124.77,124.77,0,0,0-17.41,64.24q0,52.82,37.54,90.36t90.36,37.54q52.83,0,90.36-37.54t37.55-90.36A124.78,124.78,0,0,0,366.3,63.67q65.38,33.39,108.78,100.78Q437.12,223,379.87,257.68Z"/></svg>