<svg fill="#333" width="30" height="30" xmlns="http://www.w3.org/2000/svg" viewBox="0 0 511.6 328.9"><path d="M506 144.8Q466 79.3 398.3 39.7T255.8 0q-75 0-142.6 39.7T5.7 144.7Q0 154.8 0 164.6T5.7 184q40 65.4 107.5 105.1T255.8 329q75.1 0 142.6-39.5T506 184q5.7-10 5.7-19.7t-5.7-19.7ZM194.5 66.7Q220 41 255.8 41a13.7 13.7 0 0 1 13.7 13.7 13.7 13.7 0 0 1-13.7 13.7 57.2 57.2 0 0 0-42 17.4 57.2 57.2 0 0 0-17.4 42 13.7 13.7 0 1 1-27.4 0q0-35.7 25.6-61.2Zm185.3 191a239.2 239.2 0 0 1-248.1 0Q74.5 223 36.5 164.4 80 97.1 145.3 63.7a124.8 124.8 0 0 0-17.4 64.2q0 52.8 37.5 90.4t90.4 37.5q52.8 0 90.4-37.5t37.5-90.4a124.8 124.8 0 0 0-17.4-64.2Q431.7 97 475.1 164.5q-38 58.5-95.2 93.2Z"/></svg>